<!--
  Audience types and archetype fit
  Book: Branding and AI
  Chapter: 06-brand-strategy-and-positioning
  Figure: 06
  Type: comparison table
  Generated: 2026-06-18
  Source: pantry/06-brand-strategy-and-positioning-cajal.md
-->
<svg viewBox="0 0 700 360" xmlns="http://www.w3.org/2000/svg" role="img" aria-labelledby="fig-title-06-06">
  <title id="fig-title-06-06">Audience types and archetype fit</title>
  <desc>Three audience types — developers, first-time founders in hostile markets, buyers in incumbent-dominated markets — mapped on what they fear, want, distrust, reward, and the archetype that fits.</desc>
  <metadata>
    <cajal:figure xmlns:cajal="https://bearbrown.ai/cajal/1.0"
      book="Branding and AI" book-slug="branding-and-ai" chapter="06-brand-strategy-and-positioning"
      figure-number="06" figure-title="Audience types and archetype fit" figure-slug="audience-types-archetype-fit"
      figure-type="comparison table" priority="Important" author="Nik Bear Brown &amp; Nina Harris"
      date-generated="2026-06-18" source-file="pantry/06-brand-strategy-and-positioning-cajal.md"/>
  </metadata>
  <rect x="0" y="0" width="700" height="360" fill="#FFFFFF"/>
  <text x="32" y="40" font-family="'EB Garamond','Garamond',Georgia,serif" font-size="14" fill="#121212">The reward structure points toward the archetype</text>
  <text x="32" y="60" font-family="'Inter',-apple-system,'Helvetica Neue',sans-serif" font-size="11" fill="#545454">Ask what the audience fears, wants, distrusts, and rewards — then name the role they need.</text>

  <!-- header -->
  <rect x="32" y="80" width="150" height="34" fill="#F5F5F5" stroke="#D4D4D4" stroke-width="1"/>
  <rect x="182" y="80" width="106" height="34" fill="#F5F5F5" stroke="#D4D4D4" stroke-width="1"/>
  <rect x="288" y="80" width="106" height="34" fill="#F5F5F5" stroke="#D4D4D4" stroke-width="1"/>
  <rect x="394" y="80" width="106" height="34" fill="#F5F5F5" stroke="#D4D4D4" stroke-width="1"/>
  <rect x="500" y="80" width="100" height="34" fill="#F5F5F5" stroke="#D4D4D4" stroke-width="1"/>
  <rect x="600" y="80" width="68" height="34" fill="#F5F5F5" stroke="#D4D4D4" stroke-width="1"/>
  <text x="40" y="101" font-family="'Inter',-apple-system,'Helvetica Neue',sans-serif" font-size="11" font-weight="700" fill="#121212">Audience</text>
  <text x="190" y="101" font-family="'Inter',-apple-system,'Helvetica Neue',sans-serif" font-size="11" font-weight="700" fill="#121212">Fears</text>
  <text x="296" y="101" font-family="'Inter',-apple-system,'Helvetica Neue',sans-serif" font-size="11" font-weight="700" fill="#121212">Wants</text>
  <text x="402" y="101" font-family="'Inter',-apple-system,'Helvetica Neue',sans-serif" font-size="11" font-weight="700" fill="#121212">Distrusts</text>
  <text x="508" y="101" font-family="'Inter',-apple-system,'Helvetica Neue',sans-serif" font-size="11" font-weight="700" fill="#121212">Rewards</text>
  <text x="608" y="101" font-family="'Inter',-apple-system,'Helvetica Neue',sans-serif" font-size="11" font-weight="700" fill="#121212">Fit</text>

  <g font-family="'Inter',-apple-system,'Helvetica Neue',sans-serif" font-size="10.5" fill="#121212">
    <!-- developers -->
    <rect x="32" y="114" width="150" height="68" fill="#FFFFFF" stroke="#D4D4D4" stroke-width="1"/>
    <rect x="182" y="114" width="106" height="68" fill="#FFFFFF" stroke="#D4D4D4" stroke-width="1"/>
    <rect x="288" y="114" width="106" height="68" fill="#FFFFFF" stroke="#D4D4D4" stroke-width="1"/>
    <rect x="394" y="114" width="106" height="68" fill="#FFFFFF" stroke="#D4D4D4" stroke-width="1"/>
    <rect x="500" y="114" width="100" height="68" fill="#FFFFFF" stroke="#D4D4D4" stroke-width="1"/>
    <rect x="600" y="114" width="68" height="68" fill="#F5F5F5" stroke="#D4D4D4" stroke-width="1"/>
    <text x="40" y="140" font-weight="700">Developers</text>
    <text x="190" y="140" fill="#545454">Wasted</text>
    <text x="190" y="154" fill="#545454">time, broken</text>
    <text x="190" y="168" fill="#545454">tools.</text>
    <text x="296" y="140" fill="#545454">Reliable</text>
    <text x="296" y="154" fill="#545454">infra they</text>
    <text x="296" y="168" fill="#545454">control.</text>
    <text x="402" y="140" fill="#545454">Sales</text>
    <text x="402" y="154" fill="#545454">pressure,</text>
    <text x="402" y="168" fill="#545454">hype.</text>
    <text x="508" y="140" fill="#545454">Demonstrated</text>
    <text x="508" y="154" fill="#545454">competence.</text>
    <text x="608" y="148" font-weight="700">Sage</text>

    <!-- first-time founders -->
    <rect x="32" y="182" width="150" height="68" fill="#FFFFFF" stroke="#D4D4D4" stroke-width="1"/>
    <rect x="182" y="182" width="106" height="68" fill="#FFFFFF" stroke="#D4D4D4" stroke-width="1"/>
    <rect x="288" y="182" width="106" height="68" fill="#FFFFFF" stroke="#D4D4D4" stroke-width="1"/>
    <rect x="394" y="182" width="106" height="68" fill="#FFFFFF" stroke="#D4D4D4" stroke-width="1"/>
    <rect x="500" y="182" width="100" height="68" fill="#FFFFFF" stroke="#D4D4D4" stroke-width="1"/>
    <rect x="600" y="182" width="68" height="68" fill="#F5F5F5" stroke="#D4D4D4" stroke-width="1"/>
    <text x="40" y="206" font-weight="700">First-time</text>
    <text x="40" y="220" font-weight="700">founders,</text>
    <text x="40" y="234" font-weight="700">hostile mkt</text>
    <text x="190" y="208" fill="#545454">Hidden</text>
    <text x="190" y="222" fill="#545454">friction,</text>
    <text x="190" y="236" fill="#545454">surprises.</text>
    <text x="296" y="208" fill="#545454">Someone who</text>
    <text x="296" y="222" fill="#545454">anticipates</text>
    <text x="296" y="236" fill="#545454">the pain.</text>
    <text x="402" y="208" fill="#545454">Being left</text>
    <text x="402" y="222" fill="#545454">to figure it</text>
    <text x="402" y="236" fill="#545454">out alone.</text>
    <text x="508" y="208" fill="#545454">Friction</text>
    <text x="508" y="222" fill="#545454">removed.</text>
    <text x="608" y="216" font-weight="700">Caregiver</text>

    <!-- incumbent-dominated buyers -->
    <rect x="32" y="250" width="150" height="68" fill="#FFFFFF" stroke="#D4D4D4" stroke-width="1"/>
    <rect x="182" y="250" width="106" height="68" fill="#FFFFFF" stroke="#D4D4D4" stroke-width="1"/>
    <rect x="288" y="250" width="106" height="68" fill="#FFFFFF" stroke="#D4D4D4" stroke-width="1"/>
    <rect x="394" y="250" width="106" height="68" fill="#FFFFFF" stroke="#D4D4D4" stroke-width="1"/>
    <rect x="500" y="250" width="100" height="68" fill="#FFFFFF" stroke="#D4D4D4" stroke-width="1"/>
    <rect x="600" y="250" width="68" height="68" fill="#F5F5F5" stroke="#D4D4D4" stroke-width="1"/>
    <text x="40" y="274" font-weight="700">Buyers in</text>
    <text x="40" y="288" font-weight="700">incumbent</text>
    <text x="40" y="302" font-weight="700">markets</text>
    <text x="190" y="276" fill="#545454">Being stuck</text>
    <text x="190" y="290" fill="#545454">with the old</text>
    <text x="190" y="304" fill="#545454">way.</text>
    <text x="296" y="276" fill="#545454">A real</text>
    <text x="296" y="290" fill="#545454">alternative</text>
    <text x="296" y="304" fill="#545454">to the giant.</text>
    <text x="402" y="276" fill="#545454">Incumbent</text>
    <text x="402" y="290" fill="#545454">spin and</text>
    <text x="402" y="304" fill="#545454">lock-in.</text>
    <text x="508" y="276" fill="#545454">Naming what</text>
    <text x="508" y="290" fill="#545454">they avoid.</text>
    <text x="608" y="284" font-weight="700">Rebel</text>
  </g>

  <text x="32" y="346" font-family="'Inter',-apple-system,'Helvetica Neue',sans-serif" font-size="10" fill="#545454" letter-spacing="0.08em">SOURCE: CH. 6, ARCHETYPE AT THE COMPANY LEVEL</text>
</svg>
